<svg xmlns="http://www.w3.org/2000/svg" width="81" height="30.004" viewBox="0 0 81 30.004">
    <g data-name="그룹 655">
        <path data-name="패스 141" d="M6.082.622v9.1c0 1.371-.646 2.1-1.824 2.084a1.63 1.63 0 0 1-1.825-1.679H0c0 2.376 1.805 3.62 4.181 3.62 2.566 0 4.314-1.517 4.3-4.022v-9.1zm11.213 8.847a2.114 2.114 0 0 1-2.167 2.23 1.841 1.841 0 0 1-1.9-2.011V3.875h-2.357v6.179c0 2.322 1.368 3.638 3.345 3.62a3.068 3.068 0 0 0 3.041-1.828h.114v1.718h2.281V3.875h-2.357zm4.751 4.095h2.319v-1.535h.155a3.043 3.043 0 0 0 2.889 1.718c2.357-.018 4.143-1.828 4.143-5.009 0-3.236-1.843-4.991-4.181-5.009a3.014 3.014 0 0 0-2.851 1.719h-.114V.622h-2.36zm2.319-4.863c-.02-1.861.836-3.089 2.355-3.107 1.6.018 2.414 1.316 2.433 3.108-.019 1.846-.855 3.163-2.433 3.181-1.5-.019-2.375-1.28-2.356-3.182zm13.418 8.7c2.737 0 4.732-1.207 4.751-3.693V3.873h-2.357v1.572h-.114a3.079 3.079 0 0 0-2.889-1.718c-2.338.018-4.181 1.718-4.181 4.9 0 3.163 1.824 4.789 4.181 4.789a3 3 0 0 0 2.889-1.609h.114v1.865c0 1.428-.913 2.013-2.357 2.013-1.2 0-2.015-.4-2.2-1.243h-2.361c.171 1.809 1.861 2.961 4.523 2.961zm-2.358-8.736c-.019-1.755.8-3.053 2.395-3.071 1.52.018 2.376 1.243 2.357 3.071.019 1.865-.857 2.975-2.357 2.961-1.577.014-2.414-1.17-2.395-2.961zm13.722 8.738c2.737 0 4.732-1.207 4.751-3.693V3.875h-2.356v1.572h-.114a3.079 3.079 0 0 0-2.889-1.718c-2.338.018-4.181 1.718-4.181 4.9 0 3.163 1.824 4.789 4.181 4.789a3 3 0 0 0 2.889-1.609h.114v1.865c0 1.426-.912 2.011-2.357 2.011-1.2 0-2.015-.4-2.2-1.243H44.62c.175 1.809 1.866 2.961 4.527 2.961zM46.79 8.665c-.019-1.755.8-3.053 2.395-3.071 1.52.018 2.376 1.243 2.357 3.071.019 1.865-.855 2.98-2.357 2.961-1.577.014-2.414-1.17-2.395-2.961zm9.35 4.9h2.357V3.876h-2.356zM55.951 1.24a1.314 1.314 0 0 0 1.369 1.246 1.3 1.3 0 0 0 1.368-1.246A1.326 1.326 0 0 0 57.32 0a1.339 1.339 0 0 0-1.369 1.24zm7.184 6.654a2.037 2.037 0 0 1 2.129-2.23 1.846 1.846 0 0 1 1.976 2.087v5.813h2.357V7.385a3.274 3.274 0 0 0-3.421-3.656 3.032 3.032 0 0 0-3 1.791h-.156V3.875h-2.242v9.689h2.357zm13.113 9.509c2.737 0 4.732-1.207 4.751-3.693V3.875h-2.356v1.572h-.114a3.079 3.079 0 0 0-2.889-1.718c-2.338.018-4.181 1.718-4.181 4.9 0 3.163 1.824 4.789 4.181 4.789a3 3 0 0 0 2.889-1.609h.114v1.865c0 1.426-.912 2.011-2.357 2.011-1.2 0-2.015-.4-2.2-1.243h-2.361c.171 1.809 1.863 2.961 4.523 2.961zm-2.356-8.738c-.019-1.755.8-3.053 2.395-3.071 1.52.018 2.376 1.243 2.357 3.071.019 1.865-.855 2.98-2.357 2.961-1.578.014-2.414-1.17-2.395-2.961z"/>
        <path data-name="선 31" transform="translate(.018 17.352)" style="fill:none;stroke:#404040;stroke-width:1.5px" d="M0 0h30.163"/>
        <path data-name="선 32" transform="translate(56.12 17.352)" style="fill:none;stroke:#404040;stroke-width:1.5px" d="M0 0h14.624"/>
        <path data-name="패스 142" d="M32.629 24.501v-1.042h1.883v-.585h-4.46v.585h1.865v1.042a4.123 4.123 0 0 1-2.121 3.419l.4.548a4.468 4.468 0 0 0 2.086-2.623 4.1 4.1 0 0 0 2.1 2.422l.384-.548a3.742 3.742 0 0 1-2.137-3.218zm3 5.5h.695V22.07h-.697zm7.422-7.422h-5.376v.585h4.68v.11a11.6 11.6 0 0 1-.247 2.705h-5.329v.585h3.236v3.44h.713v-3.437H44v-.585h-1.179a12.5 12.5 0 0 0 .229-2.705zm7.952 3.163h-7.259v.548h7.257zm-6.38 1.718h4.789v.676h-4.776v1.758h5.722v-.512h-5.022v-.768h4.77v-1.681h-5.485zm.037-4.662h4.716v.658h-4.68v1.7h5.521v-.506h-4.828v-.7h4.68v-1.642h-5.411zm10.07-.348c-1.2-.009-2.038.649-2.047 1.609.009.978.85 1.636 2.047 1.627 1.179.009 2.029-.649 2.029-1.627.001-.956-.849-1.614-2.029-1.609zm-2.632 3.93.091.585c.658 0 1.426-.009 2.23-.046v2.831h.695v-2.863a20.059 20.059 0 0 0 2.322-.265l-.055-.53a40.415 40.415 0 0 1-5.283.292zm1.28-2.322c-.009-.612.558-1.042 1.353-1.042s1.362.43 1.353 1.042c.009.631-.558 1.06-1.353 1.042-.795.023-1.362-.407-1.353-1.037zm4.588 5.946h.695V22.07h-.695zm7.33-7.934h-.695v5.941h.695v-2.742h1.188v-.585h-1.187zm-6.178 1.554h4.718v-.585h-2.013v-.969h-.695v.969h-2.01zm.457 1.919c-.018.887.759 1.453 1.9 1.462 1.133-.009 1.9-.576 1.9-1.462 0-.914-.768-1.49-1.9-1.5-1.139.007-1.919.586-1.9 1.5zm.658 0c0-.576.494-.941 1.243-.951.74.009 1.243.375 1.243.951 0 .548-.5.9-1.243.9-.75.007-1.24-.351-1.24-.9zm.091 4.278h5.338v-.585h-4.643v-1.7h-.695zm13.546-4.15h-4.826V22.75h-.708v3.51h2.376v2.121h-3.258v.585h7.257v-.585h-3.309v-2.125h2.468zm4.314-3.121h-3.436v.567h2.742v1.115h-2.724v2.358h.57a19.9 19.9 0 0 0 3.4-.2l-.073-.585a15.489 15.489 0 0 1-3.2.2v-1.23h2.724zm-2.522 5.388h4.643v2.066H81v-2.633h-5.338zm3.052-2.468h1.59v1.48h.695v-4.88h-.695v1.188h-1.59v.567h1.59v1.06h-1.59z"/>
    </g>
</svg>
